<?xml version="1.0" encoding="UTF-8"?>
<svg width="48px" height="48px" viewBox="0 0 48 48" version="1.1" xmlns="http://www.w3.org/2000/svg" xmlns:xlink="http://www.w3.org/1999/xlink">
    <title>satellite-1</title>
    <g id="ui-app-iOS-Academy" stroke="none" stroke-width="1" fill="none" fill-rule="evenodd">
        <g id="2_Dashboard" transform="translate(-171.000000, -190.000000)" fill="#FFFFFF" fill-rule="nonzero">
            <g id="box-currently" transform="translate(15.000000, 170.000000)">
                <g id="satellite-1" transform="translate(156.000000, 20.000000)">
                    <path d="M20.1612632,39.9290089 C19.7673023,39.9290089 19.3793408,39.7690289 19.1013684,39.4890639 L8.50242041,28.8903887 C8.21644879,28.6044244 8.05646467,28.2084739 8.06246408,27.8045244 C8.07046328,27.3985752 8.24444601,27.0086239 8.54041664,26.7326584 C10.2082511,25.1788526 12.3860349,24.3209599 14.6718081,24.3209599 C17.1635607,24.3209599 19.5653223,25.3628296 21.2591542,27.1826022 C24.464836,30.6221722 24.464836,36.0114986 21.2591542,39.4510686 C20.9831816,39.7470316 20.5932203,39.9210099 20.1892604,39.9290089 C20.1852608,39.9290089 20.1792614,39.9290089 20.1752618,39.9290089 L20.1612632,39.9290089 Z M19.9772814,36.1234846 C21.1571643,33.895763 20.8251973,31.1161105 19.065372,29.2283465 C17.9354841,28.0164979 16.3356429,27.3225847 14.6738079,27.3225847 C13.6819063,27.3225847 12.7260012,27.5605549 11.8680863,28.0144982 L19.9772814,36.1234846 Z" id="Shape"></path>
                    <path d="M11.1241602,40.4949381 C10.9901735,40.4949381 10.8561868,40.4769404 10.7281995,40.4409449 C9.17235391,40.0189976 7.9544748,38.7851519 7.55051489,37.2233471 C7.45052482,36.8353956 7.50851906,36.4314461 7.71049901,36.0874891 C7.91447877,35.7415323 8.24044641,35.4975628 8.6284079,35.3975753 C8.74639619,35.3655793 8.87638329,35.3495813 9.00437059,35.3495813 C9.6863029,35.3495813 10.2822437,35.8115236 10.4542267,36.4754406 C10.5882134,36.9953756 10.9941731,37.4073241 11.5141215,37.5493063 C11.9000832,37.6532933 12.224051,37.9032621 12.4220314,38.2512186 C12.6220115,38.5991751 12.6740063,39.0031246 12.5680169,39.3890764 C12.3940341,40.0389951 11.8000931,40.4949381 11.1241602,40.4949381 Z" id="Path"></path>
                    <path d="M12.1120621,48 C10.7341989,48 9.36833446,47.7620297 8.05246507,47.2940882 C5.00676738,46.2122235 2.56700954,44.0084989 1.17914729,41.0908636 C-0.398696095,37.7752781 -0.39269669,33.9737533 1.19514571,30.664167 C1.44312109,30.1462317 1.97506829,29.8122735 2.54901132,29.8122735 C2.7749889,29.8122735 2.99296726,29.8622672 3.19694701,29.960255 C3.94287297,30.3182102 4.25684181,31.2140982 3.90087714,31.960005 C2.70699564,34.4496938 2.70299604,37.3073366 3.88887833,39.8010249 C4.93277472,41.9967504 6.7685925,43.6545432 9.05836523,44.4684414 C10.048267,44.8203975 11.0761649,44.9983752 12.1120621,44.9983752 C13.4639279,44.9983752 14.7757977,44.7004124 16.0136749,44.1124859 C16.2176546,44.0164979 16.4336332,43.9665042 16.6576109,43.9665042 C17.2335538,43.9665042 17.765501,44.3024622 18.0114766,44.8223972 C18.1834595,45.184352 18.2054573,45.592301 18.0694708,45.968254 C17.9354841,46.3462067 17.6615113,46.648169 17.2995472,46.8201475 C15.6557104,47.6040495 13.9098837,48 12.1120621,48 Z" id="Path"></path>
                    <path d="M41.3791572,45.0543682 C40.1752767,45.0543682 39.0453888,44.5864267 38.197473,43.7385327 L31.8341046,37.3753281 C30.0802787,35.6215473 30.0802787,32.7659043 31.8341046,31.0121235 L29.7123152,28.8903887 L28.6504206,29.952256 C27.8025047,30.80015 26.6726169,31.2680915 25.4687364,31.2680915 C24.2648559,31.2680915 23.134968,30.80015 22.2870522,29.952256 L18.047473,25.7087864 C17.1995572,24.8608924 16.7316036,23.7310336 16.7316036,22.5271841 C16.7316036,21.3233346 17.1995572,20.1934758 18.047473,19.3455818 L19.1093676,18.2837145 L16.9875782,16.1639795 C16.1396624,17.0138733 15.0077747,17.479815 13.805894,17.479815 C12.6040133,17.479815 11.4721256,17.0138733 10.6242098,16.1639795 L4.26084141,9.8007749 C2.50701549,8.04699413 2.50701549,5.19135108 4.26084141,3.4375703 L6.38263081,1.31583552 C7.23054665,0.467941507 8.3604345,0 9.56431501,0 C10.7681955,0 11.8960836,0.467941507 12.7459992,1.31783527 L19.1093676,7.68103987 C20.8631935,9.43482065 20.8631935,12.2904637 19.1093676,14.0442445 L21.231157,16.1659793 L29.6323231,7.76502937 C31.064181,6.2672166 33.0919797,5.40132483 35.1857719,5.40132483 C36.6436272,5.40132483 38.0614865,5.81127359 39.295364,6.5871766 L41.5251427,4.35745532 C41.8091145,4.07349081 42.1850772,3.91751031 42.5850375,3.91751031 C42.9849978,3.91751031 43.3629603,4.07349081 43.6449323,4.35745532 C43.9289041,4.64141982 44.0848886,5.01737283 44.0848886,5.41732283 C44.0848886,5.81727284 43.9289041,6.1952256 43.6449323,6.47719035 L41.4171534,8.70491189 C43.3709595,11.6525434 43.0069956,15.60005 40.4612483,18.143732 L31.8361044,26.7706537 L33.9578938,28.8923885 C34.8078094,28.0444944 35.9376973,27.5765529 37.139578,27.5765529 C38.3414587,27.5765529 39.4733463,28.0444944 40.3212622,28.8923885 L46.6846306,35.2555931 C48.4384565,37.0093738 48.4384565,39.8630171 46.6846306,41.6187977 L44.5628412,43.7405324 C43.7129255,44.5884264 42.5830377,45.0543682 41.3791572,45.0543682 Z M37.1375782,30.5741782 C36.7356181,30.5741782 36.3596554,30.7301587 36.0776834,31.0121235 L33.955894,33.1338583 C33.3719519,33.7177853 33.3719519,34.6696663 33.955894,35.2555931 L40.3192624,41.6187977 C40.6032342,41.9027622 40.9791969,42.0567429 41.3791572,42.0567429 C41.7791175,42.0567429 42.15708,41.9007624 42.439052,41.6187977 L44.5608414,39.4970629 C45.1447834,38.9131359 45.1447834,37.9612548 44.5608414,37.3753281 L38.197473,31.0121235 C37.915501,30.7301587 37.5395383,30.5741782 37.1375782,30.5741782 Z M35.1937711,8.39895013 C33.9098985,8.39895013 32.6640222,8.93288339 31.7741105,9.8607674 L20.1672626,21.4673166 C19.5833206,22.0512436 19.5833206,23.0031246 20.1672626,23.5890514 L24.4108414,27.8325209 C24.6928134,28.1144857 25.0707759,28.2704662 25.4707362,28.2704662 C25.8726963,28.2704662 26.248659,28.1144857 26.530631,27.8325209 L38.3394589,16.0219973 C40.0852856,14.2782152 40.0972844,11.4445694 38.3734555,9.6887889 C38.3614567,9.67879015 38.3234605,9.63879515 38.3134615,9.6287964 C38.1414785,9.4608174 37.9574968,9.3048369 37.7615162,9.16685414 C37.0135905,8.66891639 36.1196792,8.39895013 35.1937711,8.39895013 Z M9.56431501,2.99962505 C9.16435471,2.99962505 8.78639222,3.15560555 8.50442021,3.43957005 L6.38263081,5.55930509 C6.098659,5.84326959 5.94267448,6.2192226 5.94267448,6.6191726 C5.94267448,7.01912261 6.098659,7.39707537 6.38263081,7.67904012 L12.7459992,14.0422447 C13.0279712,14.3242095 13.4059337,14.48019 13.805894,14.48019 C14.2058543,14.48019 14.5838168,14.3242095 14.8657888,14.0422447 L16.9875782,11.9205099 C17.27155,11.6365454 17.4275345,11.2605924 17.4275345,10.8606424 C17.4275345,10.4606924 17.27155,10.0827397 16.9875782,9.8007749 L10.6242098,3.4375703 C10.340238,3.15560555 9.96427531,2.99962505 9.56431501,2.99962505 Z" id="Shape"></path>
                </g>
            </g>
        </g>
    </g>
</svg>